<?xml version="1.0" encoding="utf-8"?>
<!-- Generator: Adobe Illustrator 27.2.0, SVG Export Plug-In . SVG Version: 6.00 Build 0)  -->
<svg version="1.1" id="Layer_1" xmlns="http://www.w3.org/2000/svg" xmlns:xlink="http://www.w3.org/1999/xlink" x="0px" y="0px"
	 viewBox="0 0 156 180.1" style="enable-background:new 0 0 156 180.1;" xml:space="preserve">
<style type="text/css">
	.st0{fill:#FFFFFF;}
	.st1{fill:url(#SVGID_1_);}
	.st2{fill:none;stroke:#E6D9AF;stroke-miterlimit:10;}
	.st3{fill:#1E211F;}
	.st4{font-family:'IM_FELL_Great_Primer_SC';}
	.st5{font-size:70px;}
	.st6{font-size:12px;}
	.st7{fill:#606060;}
	.st8{font-size:8px;}
</style>
<polygon class="st0" points="0,45 0,135.1 78,180.1 156,135.1 156,45 78,0 "/>
<g>
	<radialGradient id="SVGID_1_" cx="78.0078" cy="90.7996" r="80.5306" gradientUnits="userSpaceOnUse">
		<stop  offset="6.399183e-02" style="stop-color:#FFFFFF"/>
		<stop  offset="0.8462" style="stop-color:#E6D9AF"/>
	</radialGradient>
	<path class="st1" d="M2.6,46.8c1.1-0.5,0.9,0.5,2,0.9c1.1,0.4,1.2,0.5,2.4,0.2c1-0.2,0.3-0.8,0.8-1.6C8.4,45.5,9.5,46,9.7,45
		c0.4-1.6-1.4-2-0.7-3.4c0.5-0.9,1.1-0.5,2.1-0.8c1-0.2,1.1,0.4,2.1,0.1c1-0.2,0.9-0.7,1.9-0.9s1.2-0.8,2.1-0.2
		c1.1,0.8-0.4,2.1,0.8,2.6c1,0.5,0.8-0.9,1.6-1.5c0.9-0.6,0.9-0.6,1.7-1.2c0.9-0.6,1-0.4,1.9-1s1.2-0.3,1.8-1.2c0.7-1,0.8-1.1,1-2.3
		s-0.9-1.7-0.2-2.6c0.7-0.9,1.2-0.2,2.3-0.6c1-0.4,0.9-1.5,2-1.4c1.3,0.1,0.9,1.3,2,2c1.1,0.7,1.8,0.7,2.5,0.5
		c0.2-0.1,1.1-0.1,2.1-0.7c0.6-0.4,1.2-0.8,1.9-1.2c0.7-0.4,1.2-0.9,1.8-1.3c1.1-0.7,2-0.1,2.1-1.2c0-1-0.6-0.9-0.9-1.8
		c-0.3-0.9-0.7-0.8-1-1.7c-0.3-0.9-0.8-1-0.4-1.9c0.5-0.9,1.1-0.1,2-0.5c1-0.4,0.9-0.5,1.9-0.7c1.1-0.2,1-0.6,2.1-0.6
		c1.1,0,1.1,0.6,2.2,0.6s1.2-0.8,2.2-0.7c0.7,0.4,1.3,0.6,1.9,0.2c0.5-0.4,1.2-0.8,1.6-1.4c0.6-0.9-0.1-1.4,0.6-2.1
		c0.8-0.8,1.4-0.1,2.3-0.7c1-0.6,0.5-1.3,1.5-1.9c1-0.6,1.4,0,2.3-0.7c1-0.6,0.6-1.2,1.5-1.8c1-0.6,0.9-0.7,2-0.6
		c1.2,0.1,0.8,0.6,1.7,1.4c0.9,0.8,1.3,0.5,2.2,1.3s0.6,2.6,1.7,2.1c1.1-0.5-0.2-1.4-0.2-2.7s-0.7-1.5-0.2-2.6
		c0.6-1.2,1.1-0.9,2.2-1.8c1-0.9,0.9-1,1.9-1.9c1-0.9,1.1-0.9,2.3-1.6c1.4-0.8,1.8,0,3.2,0.5c0.4,0.1,0.8,0.6,1.6,1.3
		c0.5,0.4,1.4,0.6,1.9,1c0.6,0.5,1.2,1,1.6,1.4c0.9,0.8,0.4,1.3,1.4,1.8c0.9,0.4,1,0.1,1.9,0.4c0.9,0.3,1.1-0.2,1.6,0.6
		c0.6,1,0.7,1,0.7,2.1c0,1.1-0.7,1.1-0.7,2.3c0,1.1-0.6,1.6,0.1,2.5c0.8,1,1.5-0.1,2.7,0.3c1.2,0.4,1.1,0.6,2.3,1
		c1.2,0.4,1,0.6,2.3,0.4c1-0.1,1,0.1,1.7-0.6s0.1-1.6,1-1.8c1.2-0.3,1.3,0.6,2.5,0.8c1.3,0.2,1.2,0.2,2.5,0.5
		c1.4,0.4,1.4,0.3,2.7,0.8c1.3,0.5,1.3,0.6,2.6,1.1c1.2,0.5,1.3,0.2,2.6,0.7c1.3,0.5,1.8-0.1,2.6,1c0.8,1.2-0.2,1.5-0.2,2.9
		c0,1.4-0.8,1.6-0.3,3c0.4,1.3,1.5,0.7,2.4,1.7c0.9,1,0.3,1.5,1.6,2c1.2,0.5,1.2-0.1,2.4-0.3c1.3-0.2,1.3-0.2,2.5-0.2
		c1,0.1,1-0.1,1.9,0.2c0.9,0.3,0.8,0.6,1.7,0.6c1,0,1.1,0.2,2.1,0c1-0.2,0.9-0.5,1.9-0.2c1.2,0.3,1.2,0.2,2.3,1
		c1,0.8,0.8,1.1,1.8,1.9c1,0.8,1.8,0.1,2.4,1.2c0.5,0.9,0,1.1,0,2.1c0,1-0.9,1.2-0.6,2.2c0.3,1,1.4,0.4,2,1.2c0.6,0.8,0.1,1.3,1,1.7
		c1,0.6,1.1,0.4,2.3,0.6c1.2,0.2,1.2,0.1,2.4,0.2c1.2,0.2,1.2-0.2,2.4-0.1c1.2,0.1,1.2,0.1,2.5,0.1c1.3,0.1,1.4-0.3,2.3,0.6
		c0.9,0.9,0.5,1.1,0.5,2.4c0,1.3,0.2,1.3,0.2,2.6c0,1.3-0.1,1.4-0.6,2.5c-0.6,1.2-1.2,0.5-2.2,1.4c-1,0.9-0.6,1.3-1.5,2.3
		c-0.7,0.7-0.6,0.7-1,1.6c-0.3,0.8-0.9,1.4-1,1.7c-0.1,0.2,0.5,1.2,0.6,2.2c0.1,0.7-0.1,1.4,0,2.1c0.2,1.1,0.3,1,0.7,1.9
		c0.6,1.2,1,0.9,1.8,2.1c0.7,1.1,0.2,1.4,0.6,2.7c0.4,1.2,0.1,1.1,0.1,2.4c0,1.3-0.1,1.3,0,2.5c0,1.3,0.8,1.3,0.6,2.5
		c-0.5,0.8-1.4,1.4-1.9,2.1c-1,1.2-1.4,0.8-1.6,2.2c-0.1,1.2,0,1.2,0.3,2.4c0.3,1.2,0.3,1.2,0.6,2.4c0.3,1.2,0.1,1.3,0.5,2.4
		c0.4,1.2,1.3,1.4,1.6,2.1c0.1,0.3,0.2,1.3,0.4,2.1c0.3,1-0.2,1.1,0.5,1.9c0.8,0.9,0.7,1,1.6,1.8s1.3,0.3,1.7,1.5
		c0.3,0.9-0.1,0.7-0.6,1.5s-0.5,0.8-0.9,1.6c-0.5,1-0.6,1-1.1,2c-0.5,1-0.1,1.2-0.6,2.2c-0.5,1-1.1,0.7-1.6,1.8
		c-0.5,1-0.8,1-0.4,2.1c0.6,1.5,0.7,1.5,2.2,2.2c1.3,0.6-0.1-1,0.1,2.7c0,0.8,0.5,1.6,0.7,2.5c0.1,0.8-0.2,1.8-0.1,2.6
		c0.1,0.9,0.9,1.7,1.1,2.5c0.2,1.3,0.1,2.5-0.1,2.8c-0.2,0.2-1.1,0.6-1.8,1.5c-0.4,0.6-0.5,1.5-0.9,2.1c-0.7,1-1.2,0.5-0.9,1.6
		c0.3,1.3,0.2,1.2,0.5,2.5c0.2,1-0.3,0.6-1.3,1.2c-0.6,0.3-1.5,0.3-2.1,0.7c-0.8,0.5-1.5,0.9-1.8,1.1c-0.3,0.2-1.1,0.9-2.1,1.6
		c-0.7,0.4-1.7,0.6-2.4,1c-1.2,0.8-0.9,2.5-2.1,2.1c-1.4-0.5-1.2-1.4-2.4-1.3c-0.5,0-1,0.3-1.5,1.1c-0.6,0.9-0.9,0.7-1.6,1.6
		c-0.8,1-0.7,1.1-1.6,2c-0.9,0.9-0.5,1.3-1.8,1.6c-1.3,0.3-1.1-0.2-2.4-0.6c-1.3-0.4-1.4,0-2.6-0.3c-1.3-0.4-1.1-1.4-2.4-0.9
		c-1.2,0.5-0.8,1-1.5,2.1c-0.7,1.1-0.7,1.1-1.1,2.4c-0.4,1.2,0.1,1.2,0,2.5c-0.1,1.3,0.2,1.5-0.5,2.5c-0.7,0.9-1.3,0-2.4,0.3
		c-1.1,0.3-1.1,0.5-2.2,0.8s-1,0.8-2.2,0.8c-0.9-0.6-1.8-0.3-2.7,0c-1.4,0.4-2-0.2-2.8,1c-0.6,0.8-0.2,1.1-0.7,2
		c-0.5,0.9-0.7,0.8-1.2,1.6c-0.5,0.9,0,1.3-0.6,2c-0.7,0.8-0.8,0.8-1.7,1.5c-0.8,0.7-1.2,0.3-2,1.1c-0.8,0.7-0.7,0.9-1.5,1.6
		c-0.8,0.7-0.7,1.1-1.8,1.3c-0.9,0.2-0.9-0.3-1.7-0.7c-0.8-0.4-0.7-1-1.6-0.9c-1.4,0.1-1.2,0.7-2.3,1.6c-0.9,0.7-1.4,2.1-1.8,2.3
		c-0.9,0.5-1.4,0.5-2.7,1.3c-1.2,0.8-1.2,0.7-2.6,1c-1.4,0.3-1.3,0.9-2.7,1.1c-1.4,0.2-1.4,0.3-2.8,0.4c-1.1,0.1-1.1,0-2.3,0
		s-1.1-0.1-2.1-0.7c-0.9-0.5-0.6-0.6-1.2-1.5c-0.5-0.9-0.8-0.7-1.4-1.6c-0.5-0.9,0-1.2-0.5-2.1c-0.5-0.9-0.4-1.4-1.3-1.8
		c-1.1-0.4-1.3,0.2-2.5,0.4c-1.2,0.2-1.1,0.4-2.3,0.6s-1.4,1.1-2.5,0.7c-1.4-0.5-0.9-1.4-1.9-2.4c-1-1-1.3-0.8-2.1-2
		c-0.7-1-0.6-1.1-1.1-2.1c-0.5-1.1,0.3-2.1-0.8-2.5c-1.3-0.5-2.2,1.5-2.9,1.5c-0.2,0-0.9-0.9-1.7-1.3c-0.6-0.2-1.3-0.3-1.9-0.6
		c-1-0.5-1.2,0-1.7-0.8c-0.7-1.1-1-1-1.5-2.2c-0.5-1.3,0.2-1.5-0.3-2.7c-0.5-1.3,0.1-1.8-1-2.6c-0.9-0.6-1.1,0.8-2.2,1
		c-1.1,0.2-1.2-0.5-2.3-0.3c-1.1,0.2-1.1,0.5-2.2,0.7s-1.4,1-2.4,0.5c-1-0.5-0.5-1.3-1-2.3c-0.6-1-0.6-1-1.3-1.9
		c-0.6-0.8-0.6-0.2-1.7-0.5c-0.6-0.1-1.1-0.9-1.8-1c-0.6-0.1-1.3,0.1-2,0.1c-0.8,0-1.7,0.1-2.2-0.3c-0.6-0.5-0.6-1.5-1-2
		c-0.6-1-0.4-1-1-1.9c-0.9-1.3-1-0.9-3.1-0.6c-0.7,0.1-1.5-0.1-2.1-0.6c-0.6-0.4-1.1-1-1.6-1.5c-0.7-0.8-1.1-1.5-1.3-1.6
		c-0.3-0.1-1-1-2.1-1.4c-0.7-0.3-1.7,0.1-2.5-0.2c-1-0.4-1.8-1.1-2.2-1.1c-0.3-0.1-0.9-0.4-1.5-1c-0.4-0.4-1.2-0.7-1.6-1.2
		c-0.7-0.8-1.1-0.7-0.9-1.6c0.2-1.4,1.3-1.2,1-2.5c-0.3-1.4-1.3-0.8-2.3-1.8c-1-1-1.2-0.9-2-2.2c-0.7-1.2-0.1-1.5-0.1-3
		c0-1.2,0.3-2.4,0.4-2.8c0.1-0.3-0.4-1.4-0.4-2.6c0-0.8-0.1-1.7-0.1-2.6c0-1.4,0.2-1.2,0.8-2.4c0.5-0.9,0.6-0.5,1.5-1
		c0.7-0.4,1.4-0.8,1.7-1.2c0.2-0.3,0.9-0.9,1.2-1.7c0.2-0.6-0.1-1.5,0.1-2.1c0.4-1,1-0.7,1.2-1.7c0.3-1-0.1-1-0.2-2.2
		c0-0.6,0.3-1.5,0-2.2C8.2,100,7,99.5,6.3,99c-1.1-0.7-1.2-0.5-2.4-0.9c-1.4-0.5-2.6-1.2-1.8-2.3c0.2-0.4,0.9-0.9,1.2-1.7
		c0.3-0.6,0.6-1.3,0.8-2c0.4-1.1,0.3-1,0.5-2c0.2-1.2,0.7-1.1,0.8-2.3s-0.1-1.2-0.1-2.4c-0.3-0.5-1-1-1.2-1.8
		c-0.2-0.6-0.2-1.4-0.3-2.1c-0.1-0.7,0.2-1.5,0.1-2.2c-0.1-0.8-0.4-1.5-0.4-2.1c-0.1-1.2-0.1-1-0.5-2c-0.4-1.1-0.7-1-0.4-2.1
		c0.4-1.6,2-1.4,2.5-2.1c0.2-0.2-0.3-1.5-0.3-2.8c-0.1-0.8,0.1-1.8,0-2.6c-0.1-1.4-1.5-1.6-0.9-2.8c0.5-1.1,1.1-0.8,1.9-1.7
		s1.5-0.5,1.5-1.7c0-1.2-0.3-1.2-1.1-2s-1.3-0.4-1.9-1.4C3.5,55,3.8,54.9,3.4,54c-0.3-0.9-0.3-1-0.6-1.9c-0.3-0.9-0.4-0.9-0.5-1.9
		c-0.1-0.9,0.5-1,0.4-1.9C2.6,47.4,1.8,47.2,2.6,46.8z"/>
	<path class="st2" d="M2.6,46.8c1.1-0.5,0.9,0.5,2,0.9c1.1,0.4,1.2,0.5,2.4,0.2c1-0.2,0.3-0.8,0.8-1.6C8.4,45.5,9.5,46,9.7,45
		c0.4-1.6-1.4-2-0.7-3.4c0.5-0.9,1.1-0.5,2.1-0.8c1-0.2,1.1,0.4,2.1,0.1c1-0.2,0.9-0.7,1.9-0.9s1.2-0.8,2.1-0.2
		c1.1,0.8-0.4,2.1,0.8,2.6c1,0.5,0.8-0.9,1.6-1.5c0.9-0.6,0.9-0.6,1.7-1.2c0.9-0.6,1-0.4,1.9-1s1.2-0.3,1.8-1.2c0.7-1,0.8-1.1,1-2.3
		s-0.9-1.7-0.2-2.6c0.7-0.9,1.2-0.2,2.3-0.6c1-0.4,0.9-1.5,2-1.4c1.3,0.1,0.9,1.3,2,2c1.1,0.7,1.8,0.7,2.5,0.5
		c0.2-0.1,1.1-0.1,2.1-0.7c0.6-0.4,1.2-0.8,1.9-1.2c0.7-0.4,1.2-0.9,1.8-1.3c1.1-0.7,2-0.1,2.1-1.2c0-1-0.6-0.9-0.9-1.8
		c-0.3-0.9-0.7-0.8-1-1.7c-0.3-0.9-0.8-1-0.4-1.9c0.5-0.9,1.1-0.1,2-0.5c1-0.4,0.9-0.5,1.9-0.7c1.1-0.2,1-0.6,2.1-0.6
		c1.1,0,1.1,0.6,2.2,0.6s1.2-0.8,2.2-0.7c0.7,0.4,1.3,0.6,1.9,0.2c0.5-0.4,1.2-0.8,1.6-1.4c0.6-0.9-0.1-1.4,0.6-2.1
		c0.8-0.8,1.4-0.1,2.3-0.7c1-0.6,0.5-1.3,1.5-1.9c1-0.6,1.4,0,2.3-0.7c1-0.6,0.6-1.2,1.5-1.8c1-0.6,0.9-0.7,2-0.6
		c1.2,0.1,0.8,0.6,1.7,1.4c0.9,0.8,1.3,0.5,2.2,1.3s0.6,2.6,1.7,2.1c1.1-0.5-0.2-1.4-0.2-2.7s-0.7-1.5-0.2-2.6
		c0.6-1.2,1.1-0.9,2.2-1.8c1-0.9,0.9-1,1.9-1.9c1-0.9,1.1-0.9,2.3-1.6c1.4-0.8,1.8,0,3.2,0.5c0.4,0.1,0.8,0.6,1.6,1.3
		c0.5,0.4,1.4,0.6,1.9,1c0.6,0.5,1.2,1,1.6,1.4c0.9,0.8,0.4,1.3,1.4,1.8c0.9,0.4,1,0.1,1.9,0.4c0.9,0.3,1.1-0.2,1.6,0.6
		c0.6,1,0.7,1,0.7,2.1c0,1.1-0.7,1.1-0.7,2.3c0,1.1-0.6,1.6,0.1,2.5c0.8,1,1.5-0.1,2.7,0.3c1.2,0.4,1.1,0.6,2.3,1
		c1.2,0.4,1,0.6,2.3,0.4c1-0.1,1,0.1,1.7-0.6s0.1-1.6,1-1.8c1.2-0.3,1.3,0.6,2.5,0.8c1.3,0.2,1.2,0.2,2.5,0.5
		c1.4,0.4,1.4,0.3,2.7,0.8c1.3,0.5,1.3,0.6,2.6,1.1c1.2,0.5,1.3,0.2,2.6,0.7c1.3,0.5,1.8-0.1,2.6,1c0.8,1.2-0.2,1.5-0.2,2.9
		c0,1.4-0.8,1.6-0.3,3c0.4,1.3,1.5,0.7,2.4,1.7c0.9,1,0.3,1.5,1.6,2c1.2,0.5,1.2-0.1,2.4-0.3c1.3-0.2,1.3-0.2,2.5-0.2
		c1,0.1,1-0.1,1.9,0.2c0.9,0.3,0.8,0.6,1.7,0.6c1,0,1.1,0.2,2.1,0c1-0.2,0.9-0.5,1.9-0.2c1.2,0.3,1.2,0.2,2.3,1
		c1,0.8,0.8,1.1,1.8,1.9c1,0.8,1.8,0.1,2.4,1.2c0.5,0.9,0,1.1,0,2.1c0,1-0.9,1.2-0.6,2.2c0.3,1,1.4,0.4,2,1.2c0.6,0.8,0.1,1.3,1,1.7
		c1,0.6,1.1,0.4,2.3,0.6c1.2,0.2,1.2,0.1,2.4,0.2c1.2,0.2,1.2-0.2,2.4-0.1c1.2,0.1,1.2,0.1,2.5,0.1c1.3,0.1,1.4-0.3,2.3,0.6
		c0.9,0.9,0.5,1.1,0.5,2.4c0,1.3,0.2,1.3,0.2,2.6c0,1.3-0.1,1.4-0.6,2.5c-0.6,1.2-1.2,0.5-2.2,1.4c-1,0.9-0.6,1.3-1.5,2.3
		c-0.7,0.7-0.6,0.7-1,1.6c-0.3,0.8-0.9,1.4-1,1.7c-0.1,0.2,0.5,1.2,0.6,2.2c0.1,0.7-0.1,1.4,0,2.1c0.2,1.1,0.3,1,0.7,1.9
		c0.6,1.2,1,0.9,1.8,2.1c0.7,1.1,0.2,1.4,0.6,2.7c0.4,1.2,0.1,1.1,0.1,2.4c0,1.3-0.1,1.3,0,2.5c0,1.3,0.8,1.3,0.6,2.5
		c-0.5,0.8-1.4,1.4-1.9,2.1c-1,1.2-1.4,0.8-1.6,2.2c-0.1,1.2,0,1.2,0.3,2.4c0.3,1.2,0.3,1.2,0.6,2.4c0.3,1.2,0.1,1.3,0.5,2.4
		c0.4,1.2,1.3,1.4,1.6,2.1c0.1,0.3,0.2,1.3,0.4,2.1c0.3,1-0.2,1.1,0.5,1.9c0.8,0.9,0.7,1,1.6,1.8s1.3,0.3,1.7,1.5
		c0.3,0.9-0.1,0.7-0.6,1.5s-0.5,0.8-0.9,1.6c-0.5,1-0.6,1-1.1,2c-0.5,1-0.1,1.2-0.6,2.2c-0.5,1-1.1,0.7-1.6,1.8
		c-0.5,1-0.8,1-0.4,2.1c0.6,1.5,0.7,1.5,2.2,2.2c1.3,0.6-0.1-1,0.1,2.7c0,0.8,0.5,1.6,0.7,2.5c0.1,0.8-0.2,1.8-0.1,2.6
		c0.1,0.9,0.9,1.7,1.1,2.5c0.2,1.3,0.1,2.5-0.1,2.8c-0.2,0.2-1.1,0.6-1.8,1.5c-0.4,0.6-0.5,1.5-0.9,2.1c-0.7,1-1.2,0.5-0.9,1.6
		c0.3,1.3,0.2,1.2,0.5,2.5c0.2,1-0.3,0.6-1.3,1.2c-0.6,0.3-1.5,0.3-2.1,0.7c-0.8,0.5-1.5,0.9-1.8,1.1c-0.3,0.2-1.1,0.9-2.1,1.6
		c-0.7,0.4-1.7,0.6-2.4,1c-1.2,0.8-0.9,2.5-2.1,2.1c-1.4-0.5-1.2-1.4-2.4-1.3c-0.5,0-1,0.3-1.5,1.1c-0.6,0.9-0.9,0.7-1.6,1.6
		c-0.8,1-0.7,1.1-1.6,2c-0.9,0.9-0.5,1.3-1.8,1.6c-1.3,0.3-1.1-0.2-2.4-0.6c-1.3-0.4-1.4,0-2.6-0.3c-1.3-0.4-1.1-1.4-2.4-0.9
		c-1.2,0.5-0.8,1-1.5,2.1c-0.7,1.1-0.7,1.1-1.1,2.4c-0.4,1.2,0.1,1.2,0,2.5c-0.1,1.3,0.2,1.5-0.5,2.5c-0.7,0.9-1.3,0-2.4,0.3
		c-1.1,0.3-1.1,0.5-2.2,0.8s-1,0.8-2.2,0.8c-0.9-0.6-1.8-0.3-2.7,0c-1.4,0.4-2-0.2-2.8,1c-0.6,0.8-0.2,1.1-0.7,2
		c-0.5,0.9-0.7,0.8-1.2,1.6c-0.5,0.9,0,1.3-0.6,2c-0.7,0.8-0.8,0.8-1.7,1.5c-0.8,0.7-1.2,0.3-2,1.1c-0.8,0.7-0.7,0.9-1.5,1.6
		c-0.8,0.7-0.7,1.1-1.8,1.3c-0.9,0.2-0.9-0.3-1.7-0.7c-0.8-0.4-0.7-1-1.6-0.9c-1.4,0.1-1.2,0.7-2.3,1.6c-0.9,0.7-1.4,2.1-1.8,2.3
		c-0.9,0.5-1.4,0.5-2.7,1.3c-1.2,0.8-1.2,0.7-2.6,1c-1.4,0.3-1.3,0.9-2.7,1.1c-1.4,0.2-1.4,0.3-2.8,0.4c-1.1,0.1-1.1,0-2.3,0
		s-1.1-0.1-2.1-0.7c-0.9-0.5-0.6-0.6-1.2-1.5c-0.5-0.9-0.8-0.7-1.4-1.6c-0.5-0.9,0-1.2-0.5-2.1c-0.5-0.9-0.4-1.4-1.3-1.8
		c-1.1-0.4-1.3,0.2-2.5,0.4c-1.2,0.2-1.1,0.4-2.3,0.6s-1.4,1.1-2.5,0.7c-1.4-0.5-0.9-1.4-1.9-2.4c-1-1-1.3-0.8-2.1-2
		c-0.7-1-0.6-1.1-1.1-2.1c-0.5-1.1,0.3-2.1-0.8-2.5c-1.3-0.5-2.2,1.5-2.9,1.5c-0.2,0-0.9-0.9-1.7-1.3c-0.6-0.2-1.3-0.3-1.9-0.6
		c-1-0.5-1.2,0-1.7-0.8c-0.7-1.1-1-1-1.5-2.2c-0.5-1.3,0.2-1.5-0.3-2.7c-0.5-1.3,0.1-1.8-1-2.6c-0.9-0.6-1.1,0.8-2.2,1
		c-1.1,0.2-1.2-0.5-2.3-0.3c-1.1,0.2-1.1,0.5-2.2,0.7s-1.4,1-2.4,0.5c-1-0.5-0.5-1.3-1-2.3c-0.6-1-0.6-1-1.3-1.9
		c-0.6-0.8-0.6-0.2-1.7-0.5c-0.6-0.1-1.1-0.9-1.8-1c-0.6-0.1-1.3,0.1-2,0.1c-0.8,0-1.7,0.1-2.2-0.3c-0.6-0.5-0.6-1.5-1-2
		c-0.6-1-0.4-1-1-1.9c-0.9-1.3-1-0.9-3.1-0.6c-0.7,0.1-1.5-0.1-2.1-0.6c-0.6-0.4-1.1-1-1.6-1.5c-0.7-0.8-1.1-1.5-1.3-1.6
		c-0.3-0.1-1-1-2.1-1.4c-0.7-0.3-1.7,0.1-2.5-0.2c-1-0.4-1.8-1.1-2.2-1.1c-0.3-0.1-0.9-0.4-1.5-1c-0.4-0.4-1.2-0.7-1.6-1.2
		c-0.7-0.8-1.1-0.7-0.9-1.6c0.2-1.4,1.3-1.2,1-2.5c-0.3-1.4-1.3-0.8-2.3-1.8c-1-1-1.2-0.9-2-2.2c-0.7-1.2-0.1-1.5-0.1-3
		c0-1.2,0.3-2.4,0.4-2.8c0.1-0.3-0.4-1.4-0.4-2.6c0-0.8-0.1-1.7-0.1-2.6c0-1.4,0.2-1.2,0.8-2.4c0.5-0.9,0.6-0.5,1.5-1
		c0.7-0.4,1.4-0.8,1.7-1.2c0.2-0.3,0.9-0.9,1.2-1.7c0.2-0.6-0.1-1.5,0.1-2.1c0.4-1,1-0.7,1.2-1.7c0.3-1-0.1-1-0.2-2.2
		c0-0.6,0.3-1.5,0-2.2C8.2,100,7,99.5,6.3,99c-1.1-0.7-1.2-0.5-2.4-0.9c-1.4-0.5-2.6-1.2-1.8-2.3c0.2-0.4,0.9-0.9,1.2-1.7
		c0.3-0.6,0.6-1.3,0.8-2c0.4-1.1,0.3-1,0.5-2c0.2-1.2,0.7-1.1,0.8-2.3s-0.1-1.2-0.1-2.4c-0.3-0.5-1-1-1.2-1.8
		c-0.2-0.6-0.2-1.4-0.3-2.1c-0.1-0.7,0.2-1.5,0.1-2.2c-0.1-0.8-0.4-1.5-0.4-2.1c-0.1-1.2-0.1-1-0.5-2c-0.4-1.1-0.7-1-0.4-2.1
		c0.4-1.6,2-1.4,2.5-2.1c0.2-0.2-0.3-1.5-0.3-2.8c-0.1-0.8,0.1-1.8,0-2.6c-0.1-1.4-1.5-1.6-0.9-2.8c0.5-1.1,1.1-0.8,1.9-1.7
		s1.5-0.5,1.5-1.7c0-1.2-0.3-1.2-1.1-2s-1.3-0.4-1.9-1.4C3.5,55,3.8,54.9,3.4,54c-0.3-0.9-0.3-1-0.6-1.9c-0.3-0.9-0.4-0.9-0.5-1.9
		c-0.1-0.9,0.5-1,0.4-1.9C2.6,47.4,1.8,47.2,2.6,46.8z"/>
</g>
<g>
	<g>
		<text transform="matrix(1 0 0 1 14.2612 98.7991)" class="st3 st4 st5">rær</text>
	</g>
	<g>
		<text transform="matrix(1 0 0 1 16.0528 114.3844)" class="st3 st4 st6">Here, there be Inosine</text>
	</g>
</g>
<g>
	<g>
		<g>
			<text transform="matrix(0.8655 -0.5009 0.5009 0.8655 76.5026 168.7863)" class="st7 st4 st8">rnabioco.github.io/raer</text>
		</g>
	</g>
</g>
</svg>
